<svg xmlns="http://www.w3.org/2000/svg" viewBox="0 0 1024 1024" role="img"><defs><linearGradient id="bg" x1="0" y1="0" x2="0" y2="1"><stop offset="0" stop-color="#0d1113"/><stop offset="1" stop-color="#0b0d0f"/></linearGradient><linearGradient id="teal" x1="0" y1="1" x2="1" y2="0"><stop offset="0" stop-color="#2be6ad"/><stop offset=".55" stop-color="#30d5b0"/><stop offset="1" stop-color="#25c99b"/></linearGradient><linearGradient id="common-line" x1="104" y1="0" x2="920" y2="0" gradientUnits="userSpaceOnUse"><stop offset="0" stop-color="#0b0d0f" stop-opacity="0"/><stop offset=".06" stop-color="#1e262a" stop-opacity=".62"/><stop offset=".5" stop-color="#30d5b0"/><stop offset=".94" stop-color="#1e262a" stop-opacity=".62"/><stop offset="1" stop-color="#0b0d0f" stop-opacity="0"/></linearGradient></defs><rect width="1024" height="1024" fill="url(#bg)"/><rect x="76" y="76" width="872" height="872" rx="44" fill="#111417" stroke="#283136" stroke-width="2"/><rect x="104" y="104" width="816" height="816" rx="28" fill="#0b0d0f" stroke="#1e262a" stroke-width="2"/><path d="M104 104h816" stroke="url(#common-line)" stroke-width="6" stroke-linecap="round"/><path d="M104 920h816" stroke="url(#common-line)" stroke-width="4" stroke-linecap="round" opacity=".44"/><rect x="124" y="122" width="94" height="94" rx="22" fill="#111417" stroke="#1e262a"/><g transform="matrix(0.160156 0 0 -0.160156 130 210)"><path fill="url(#teal)" fill-rule="evenodd" d="M167.5 432.1 L330.5 432.1 L346.5 429.9 L364.5 424.8 L380.5 417.7 L393.5 409.6 L404.5 401.0 L416.0 389.5 L425.8 376.5 L435.9 358.5 L441.7 343.5 L445.9 325.5 L446.9 296.5 L445.8 285.5 L442.8 271.5 L435.7 251.5 L425.9 233.5 L416.9 221.5 L402.5 207.1 L387.5 196.1 L362.5 184.1 L348.5 180.1 L334.5 178.0 L221.5 177.2 L220.5 79.2 L137.5 79.4 L137.2 139.5 L166.5 140.2 L166.8 174.5 L136.5 175.1 L135.6 174.5 L135.7 163.5 L134.5 162.8 L104.1 163.5 L104.5 192.7 L134.5 192.9 L135.5 193.5 L135.4 220.5 L136.2 221.5 L166.8 222.5 L166.5 253.0 L135.5 253.3 L134.5 235.2 L105.5 235.1 L104.1 236.5 L104.3 264.5 L134.5 265.3 L135.5 292.5 L197.5 292.7 L198.4 293.5 L198.0 323.5 L166.8 324.5 L167.3 364.5 L198.4 365.5 L198.3 394.5 L166.9 395.5 L166.7 430.5 L167.5 432.1 Z M104.5 407.6 L134.9 407.5 L134.5 377.7 L104.5 377.9 L104.5 407.6 Z M221.5 372.3 L221.5 237.2 L322.5 237.1 L329.5 238.1 L342.5 242.1 L352.5 247.4 L359.5 252.8 L369.6 263.5 L377.0 275.5 L381.5 288.5 L383.1 298.5 L382.7 316.5 L379.7 327.5 L374.8 338.5 L368.9 347.5 L358.5 357.9 L344.5 366.7 L332.5 370.8 L322.5 372.4 L221.5 372.3 Z M65.5 324.3 L93.5 324.3 L93.9 294.5 L64.9 294.5 L64.6 322.5 L65.5 324.3 Z"/></g><path fill="#f4f7f5" d="M266 160Q266 162 264 164Q263 166 262 167Q260 168 257 168L251 168L251 176L246 176L246 153L257 153Q261 153 263 155Q266 156 266 160M261 160Q261 156 256 156L251 156L251 164L256 164Q258 164 259 163Q261 162 261 160M269 151L274 151L274 176L269 176L269 151M283 176Q280 176 279 175Q277 173 277 171Q277 168 279 167Q281 165 284 165L288 165L288 164Q288 162 287 162Q287 161 285 161Q284 161 284 161Q283 162 283 163L278 163Q279 158 286 158Q289 158 291 159Q293 161 293 164L293 171Q293 172 293 173Q293 173 294 173Q295 173 295 173L295 176Q294 176 294 176Q293 176 292 176Q291 176 290 175Q289 174 289 173L289 173Q288 175 286 175Q285 176 283 176M288 169L288 168L286 168Q284 168 283 168Q283 168 282 169Q282 170 282 171Q282 172 283 172Q283 173 284 173Q285 173 286 172Q287 172 288 171Q288 170 288 169M306 173L306 176Q304 176 302 176Q300 176 299 175Q298 174 298 172L298 161L295 161L295 158L298 158L299 154L302 154L302 158L306 158L306 161L302 161L302 171Q302 172 303 172Q303 173 304 173Q305 173 306 173M313 162L313 162Q314 160 316 159Q317 158 319 158Q322 158 323 159Q325 161 325 165L325 176L320 176L320 166Q320 164 320 162Q319 161 317 161Q315 161 314 163Q313 164 313 166L313 176L309 176L309 151L313 151L313 158Q313 159 313 159Q313 160 313 160Q313 161 313 162M347 167Q347 171 344 174Q342 176 337 176Q333 176 331 174Q328 171 328 167Q328 163 331 160Q333 158 338 158Q342 158 344 160Q347 163 347 167M342 167Q342 164 341 162Q340 161 338 161Q335 161 334 162Q333 164 333 167Q333 170 334 172Q335 173 337 173Q340 173 341 172Q342 170 342 167M371 172L371 172Q370 174 369 175Q367 176 365 176Q363 176 361 175Q359 173 359 169L359 158L364 158L364 168Q364 170 365 172Q366 173 367 173Q369 173 370 171Q371 170 371 168L371 158L376 158L376 172Q376 173 376 174Q376 175 376 176L371 176Q371 175 371 174Q371 173 371 172M396 171Q396 173 393 175Q391 176 388 176Q384 176 382 175Q380 174 379 172L383 171Q384 172 385 173Q385 173 388 173Q390 173 390 173Q391 172 391 171Q391 170 391 170Q390 169 388 169Q387 169 386 168Q385 168 384 168Q383 168 383 168Q381 167 381 166Q380 165 380 163Q380 161 382 159Q384 158 388 158Q391 158 393 159Q395 160 395 163L391 163Q391 162 390 161Q389 161 388 161Q386 161 385 161Q384 162 384 163Q384 163 385 164Q386 164 387 165Q389 165 391 166Q392 166 393 167Q394 167 395 168Q396 169 396 171M415 168L403 168Q403 171 404 172Q405 173 407 173Q408 173 409 173Q410 172 410 171L414 171Q413 176 407 176Q403 176 401 174Q398 172 398 167Q398 162 401 160Q403 158 407 158Q411 158 413 160Q415 163 415 168L415 168M403 165L410 165Q410 163 409 162Q408 161 407 161Q405 161 404 162Q403 163 403 165M423 167L423 176L418 176L418 162Q418 161 418 160Q418 159 418 158L423 158Q423 158 423 159Q423 159 423 160Q423 160 423 161Q423 162 423 162L423 162Q424 160 424 159Q425 158 425 158Q426 158 427 158Q428 158 429 158L429 162Q428 162 427 162Q425 162 424 163Q423 164 423 167M436 166L436 176L432 176L432 162Q432 161 431 160Q431 159 431 158L436 158Q436 158 436 159Q436 160 436 160Q436 161 436 162L436 162Q437 160 439 159Q440 158 442 158Q445 158 446 159Q448 161 448 165L448 176L443 176L443 166Q443 164 442 162Q442 161 440 161Q438 161 437 163Q436 164 436 166M456 176Q454 176 452 175Q451 173 451 171Q451 168 453 167Q455 165 458 165L462 165L462 164Q462 162 461 162Q461 161 459 161Q458 161 457 161Q457 162 457 163L452 163Q453 158 459 158Q463 158 465 159Q467 161 467 164L467 171Q467 172 467 173Q467 173 468 173Q469 173 469 173L469 176Q468 176 468 176Q467 176 466 176Q464 176 463 175Q463 174 462 173L462 173Q461 175 460 175Q458 176 456 176M462 169L462 168L459 168Q458 168 457 168Q457 168 456 169Q456 170 456 171Q456 172 456 172Q457 173 458 173Q459 173 460 172Q461 172 461 171Q462 170 462 169M476 166L476 176L471 176L471 162Q471 161 471 160Q471 159 471 158L476 158Q476 158 476 159Q476 160 476 160Q476 161 476 162L476 162Q477 160 478 159Q479 158 481 158Q483 158 484 159Q486 160 486 162L486 162Q487 160 488 159Q490 158 492 158Q494 158 496 159Q497 161 497 165L497 176L492 176L492 166Q492 164 492 162Q491 161 490 161Q488 161 487 163Q486 164 486 166L486 176L482 176L482 166Q482 164 481 162Q480 161 479 161Q478 161 477 163Q476 164 476 166M517 168L505 168Q505 171 506 172Q507 173 509 173Q510 173 511 173Q512 172 512 171L517 171Q515 176 509 176Q505 176 503 174Q500 172 500 167Q500 162 503 160Q505 158 509 158Q513 158 515 160Q517 163 517 168L517 168M505 165L512 165Q512 163 511 162Q510 161 509 161Q507 161 506 162Q505 163 505 165M535 171Q535 173 533 175Q531 176 527 176Q524 176 522 175Q520 174 519 172L523 171Q524 172 524 173Q525 173 527 173Q529 173 530 173Q531 172 531 171Q531 170 530 170Q530 169 528 169Q527 169 526 168Q525 168 524 168Q523 168 523 168Q521 167 521 166Q520 165 520 163Q520 161 522 159Q524 158 527 158Q531 158 533 159Q535 160 535 163L531 163Q531 162 530 161Q529 161 527 161Q526 161 525 161Q524 162 524 163Q524 163 525 164Q525 164 527 165Q529 165 531 166Q532 166 533 167Q534 167 535 168Q535 169 535 171"/><rect x="732" y="134" width="156" height="58" rx="12" fill="#111417" stroke="#283136"/><path fill="#96a19c" d="M761 170Q765 170 766 167L769 168Q768 171 766 172Q764 173 761 173Q759 173 757 172Q755 171 754 169Q753 167 753 164Q753 161 754 160Q755 158 757 157Q758 156 761 156Q764 156 766 157Q768 158 769 160L766 161Q765 160 764 159Q763 158 761 158Q759 158 758 160Q756 161 756 164Q756 166 757 168Q757 169 759 170Q760 170 761 170M788 164Q788 167 787 169Q786 171 784 172Q782 173 779 173Q777 173 775 172Q773 171 772 169Q771 167 771 164Q771 162 772 160Q773 158 775 157Q777 156 779 156Q782 156 784 157Q786 158 787 160Q788 162 788 164M784 164Q784 162 783 160Q782 158 779 158Q777 158 776 160Q774 162 774 164Q774 166 775 168Q776 169 777 170Q778 170 779 170Q782 170 783 169Q784 167 784 164M794 163L794 173L791 173L791 156L796 156L799 165Q799 166 799 167Q799 168 800 169Q800 168 800 168Q800 167 800 167Q800 166 800 166L804 156L808 156L808 173L805 173L805 163Q805 162 805 161Q805 160 805 159Q805 160 805 162Q804 163 804 163L801 173L798 173L795 163L794 159Q794 160 794 161Q794 162 794 163M815 163L815 173L812 173L812 156L816 156L820 165Q820 166 820 167Q820 168 820 169Q821 168 821 168Q821 167 821 167Q821 166 821 166L824 156L829 156L829 173L826 173L826 163Q826 162 826 161Q826 160 826 159Q826 160 825 162Q825 163 825 163L822 173L819 173L816 163L815 159Q815 160 815 161Q815 162 815 163M849 164Q849 167 848 169Q847 171 845 172Q843 173 841 173Q838 173 836 172Q834 171 833 169Q832 167 832 164Q832 162 833 160Q834 158 836 157Q838 156 841 156Q843 156 845 157Q847 158 848 160Q849 162 849 164M846 164Q846 162 844 160Q843 158 841 158Q838 158 837 160Q835 162 835 164Q835 166 836 168Q837 169 838 170Q839 170 841 170Q843 170 844 169Q846 167 846 164M855 163L855 173L852 173L852 156L856 156L864 169Q863 167 863 166L863 156L867 156L867 173L862 173L855 160Q855 161 855 161Q855 162 855 163"/><circle cx="512" cy="512" r="280" fill="none" stroke="#30d5b0" stroke-width="2" opacity=".09"/><circle cx="512" cy="512" r="218" fill="none" stroke="#66726d" stroke-width="2" opacity=".13"/><rect x="122" y="312" width="780" height="350" rx="32" fill="#111417" fill-opacity=".94" stroke="#283136" stroke-width="2"/><g><rect x="164" y="372" width="80" height="80" rx="13" fill="#151a1d" stroke="#283136" stroke-width="2"/><path fill="#f4f7f5" transform="matrix(0.52 0 0 0.52 204 428)" d="M-8.62 0.98Q-16.28 0.98-20.58-3.20Q-24.88-7.37-24.88-14.94Q-24.88-23.14-19.53-27.39Q-14.18-31.64-4.03-31.84L7.35-32.03L7.35-34.72Q7.35-39.89 5.54-42.41Q3.74-44.92-0.37-44.92Q-4.17-44.92-5.96-43.19Q-7.74-41.46-8.18-37.45L-22.49-38.13Q-19.80-53.81 0.22-53.81Q10.23-53.81 15.65-48.88Q21.07-43.95 21.07-34.86L21.07-15.62Q21.07-11.18 22.07-9.50Q23.07-7.81 25.42-7.81Q26.98-7.81 28.44-8.11L28.44-0.68Q25.90-0.05 24.10 0.27Q22.29 0.59 19.65 0.59Q14.48 0.59 12.01-1.95Q9.55-4.49 9.06-9.42L8.76-9.42Q5.88-4.25 1.54-1.64Q-2.81 0.98-8.62 0.98M7.35-21.78L7.35-24.46L0.32-24.37Q-4.52-24.12-6.47-23.34Q-8.47-22.46-9.52-20.70Q-10.57-18.95-10.57-16.02Q-10.57-12.26-8.84-10.42Q-7.10-8.59-4.22-8.59Q-1-8.59 1.68-10.35Q4.32-12.11 5.83-15.21Q7.35-18.31 7.35-21.78"/><rect x="252" y="372" width="80" height="80" rx="13" fill="#151a1d" stroke="#283136" stroke-width="2"/><path fill="#f4f7f5" transform="matrix(0.52 0 0 0.52 292 428)" d="M26.44-26.61Q26.44-13.53 21.19-6.27Q15.94 0.98 6.18 0.98Q0.56 0.98-3.54-1.46Q-7.64-3.91-9.84-8.50L-9.94-8.50Q-9.94-7.37-10.03-5.57Q-10.13-3.76-10.28-2.17Q-10.42-0.59-10.62 0L-23.95 0Q-23.75-2.29-23.66-5.30Q-23.56-8.30-23.56-12.06L-23.56-72.46L-9.84-72.46L-9.84-52.25Q-9.84-50.10-9.91-47.95Q-9.99-45.80-10.03-43.65L-9.84-43.65Q-7.54-48.73-3.30-51.27Q0.95-53.81 7.06-53.81Q16.43-53.81 21.44-46.70Q26.44-39.60 26.44-26.61M12.13-26.61Q12.13-35.60 9.50-39.94Q6.86-44.29 1.34-44.29Q-4.22-44.29-7.13-39.62Q-10.03-34.96-10.03-26.17Q-10.03-17.77-7.18-13.09Q-4.32-8.40 1.25-8.40Q6.71-8.40 9.42-12.94Q12.13-17.48 12.13-26.61"/><rect x="340" y="372" width="80" height="80" rx="13" fill="#151a1d" stroke="#283136" stroke-width="2"/><path fill="#f4f7f5" transform="matrix(0.52 0 0 0.52 380 428)" d="M1.20 0.98Q-10.82 0.98-17.36-6.18Q-23.90-13.33-23.90-26.12Q-23.90-39.21-17.31-46.51Q-10.72-53.81 1.39-53.81Q10.72-53.81 16.82-49.12Q22.92-44.43 24.49-36.18L10.67-35.50Q10.08-39.55 7.74-41.97Q5.40-44.38 1.10-44.38Q-4.22-44.38-6.86-39.97Q-9.50-35.55-9.50-26.66Q-9.50-17.53-6.79-12.96Q-4.08-8.40 1.29-8.40Q5.20-8.40 7.84-10.86Q10.47-13.33 11.11-18.21L24.88-17.58Q24.15-12.01 20.95-7.84Q17.75-3.66 12.67-1.34Q7.59 0.98 1.20 0.98"/><rect x="428" y="372" width="80" height="80" rx="13" fill="#151a1d" stroke="#283136" stroke-width="2"/><path fill="#f4f7f5" transform="matrix(0.52 0 0 0.52 468 428)" d="M23.95 0L10.67 0Q10.57-0.49 10.38-2.05Q10.18-3.61 10.06-5.47Q9.94-7.32 9.94-8.59L9.74-8.59Q7.50-3.81 3.30-1.42Q-0.90 0.98-7.15 0.98Q-16.38 0.98-21.41-6.23Q-26.44-13.43-26.44-26.37Q-26.44-39.50-21.14-46.66Q-15.84-53.81-6.13-53.81Q-0.51-53.81 3.56-51.46Q7.64-49.12 9.84-44.48L9.94-44.48L9.84-53.17L9.84-72.46L23.56-72.46L23.56-11.52Q23.56-9.08 23.66-6.20Q23.75-3.32 23.95 0M-12.13-26.37Q-12.13-17.38-9.42-12.89Q-6.71-8.40-1.34-8.40Q4.08-8.40 7.06-13.16Q10.03-17.92 10.03-26.71Q10.03-35.25 7.18-39.87Q4.32-44.48-1.25-44.48Q-6.76-44.48-9.45-40.01Q-12.13-35.55-12.13-26.37"/><rect x="516" y="372" width="80" height="80" rx="13" fill="#151a1d" stroke="#283136" stroke-width="2"/><path fill="#f4f7f5" transform="matrix(0.52 0 0 0.52 556 428)" d="M24.39-23.78L-9.50-23.78Q-9.50-16.06-6.64-12.13Q-3.78-8.20 1.49-8.20Q5.10-8.20 7.42-9.79Q9.74-11.38 10.67-14.50L23.61-13.38Q17.99 0.98 0.81 0.98Q-11.11 0.98-17.50-6.08Q-23.90-13.13-23.90-26.66Q-23.90-39.75-17.41-46.78Q-10.91-53.81 1-53.81Q12.38-53.81 18.38-46.26Q24.39-38.72 24.39-24.17L24.39-23.78M-9.40-32.37L11.11-32.37Q10.72-38.77 8.03-41.97Q5.35-45.17 0.81-45.17Q-4.03-45.17-6.64-41.80Q-9.25-38.43-9.40-32.37"/><rect x="604" y="372" width="80" height="80" rx="13" fill="#151a1d" stroke="#283136" stroke-width="2"/><path fill="#f4f7f5" transform="matrix(0.52 0 0 0.52 644 428)" d="M16.85-43.55L6.45-43.55L6.45 0L-7.23 0L-7.23-43.55L-14.94-43.55L-14.94-52.83L-7.23-52.83L-7.23-58.35Q-7.23-65.53-3.42-68.99Q0.39-72.46 8.15-72.46Q12.16-72.46 16.85-71.68L16.85-62.84Q14.89-63.28 12.84-63.28Q9.33-63.28 7.89-61.89Q6.45-60.50 6.45-56.98L6.45-52.83L16.85-52.83"/><rect x="692" y="372" width="80" height="80" rx="13" fill="#151a1d" stroke="#283136" stroke-width="2"/><path fill="#f4f7f5" transform="matrix(0.52 0 0 0.52 732 428)" d="M-1.44 21.19Q-11.11 21.19-16.99 17.50Q-22.88 13.82-24.24 6.98L-10.52 5.37Q-9.79 8.54-7.37 10.35Q-4.96 12.16-1.05 12.16Q4.66 12.16 7.30 8.64Q9.94 5.13 9.94-1.81L10.03-9.81L9.94-9.81Q7.69-4.93 3.44-2.51Q-0.81-0.10-7.06-0.10Q-16.28-0.10-21.36-7.03Q-26.44-13.96-26.44-26.86Q-26.44-39.79-21.22-46.83Q-15.99-53.86-6.03-53.86Q-0.27-53.86 3.71-51.49Q7.69-49.12 9.94-44.34L10.18-44.34Q10.18-45.51 10.28-47.27Q10.38-49.02 10.55-50.63Q10.72-52.25 10.86-52.83L23.85-52.83Q23.56-47.56 23.56-40.62L23.56-1.61Q23.56 9.67 17.16 15.43Q10.77 21.19-1.44 21.19M10.03-27.15Q10.03-35.30 7.13-39.87Q4.22-44.43-1.15-44.43Q-6.62-44.43-9.37-40.04Q-12.13-35.64-12.13-26.86Q-12.13-18.26-9.42-13.94Q-6.71-9.62-1.25-9.62Q4.22-9.62 7.13-14.18Q10.03-18.75 10.03-27.15"/><rect x="780" y="372" width="80" height="80" rx="13" fill="#151a1d" stroke="#283136" stroke-width="2"/><path fill="#f4f7f5" transform="matrix(0.52 0 0 0.52 820 428)" d="M-10.23-42.29L-10.03-42.29Q-7.25-48.34-3.05-51.07Q1.15-53.81 6.96-53.81Q15.36-53.81 19.85-48.63Q24.34-43.46 24.34-33.50L24.34 0L10.67 0L10.67-29.59Q10.67-36.57 8.33-40.04Q5.98-43.51 1.25-43.51Q-3.74-43.51-6.79-39.23Q-9.84-34.96-9.84-28.27L-9.84 0L-23.56 0L-23.56-72.46L-9.84-72.46L-9.84-52.69Q-9.84-50.93-9.89-49.17Q-9.94-47.41-10.01-45.70Q-10.08-43.99-10.23-42.29"/><rect x="340" y="464" width="80" height="80" rx="13" fill="#151a1d" stroke="#283136" stroke-width="2"/><path fill="#f4f7f5" transform="matrix(0.52 0 0 0.52 380 520)" d="M-6.91-72.46L6.81-72.46L6.81-62.35L-6.91-62.35L-6.91-72.46M-6.91-52.83L6.81-52.83L6.81 0L-6.91 0"/><rect x="428" y="464" width="80" height="80" rx="13" fill="#151a1d" stroke="#283136" stroke-width="2"/><path fill="#f4f7f5" transform="matrix(0.52 0 0 0.52 468 520)" d="M-6.86-72.46L6.86-72.46L6.86-62.35L-6.86-62.35L-6.86-72.46M-7.15 20.75Q-11.99 20.75-15.45 20.31L-15.45 10.64Q-14.82 10.69-14.21 10.77Q-13.60 10.84-12.96 10.84Q-9.45 10.84-8.15 9.30Q-6.86 7.76-6.86 2.93L-6.86-52.83L6.86-52.83L6.86 6.25Q6.86 13.23 3.32 16.99Q-0.22 20.75-7.15 20.75"/><rect x="516" y="464" width="80" height="80" rx="13" fill="#151a1d" stroke="#283136" stroke-width="2"/><path fill="#f4f7f5" transform="matrix(0.52 0 0 0.52 556 520)" d="M-1.20-23.93L-7.10-19.82L-7.10 0L-20.83 0L-20.83-72.46L-7.10-72.46L-7.10-30.96L11.74-52.83L26.49-52.83L7.93-32.23L27.91 0L12.92 0"/><rect x="604" y="464" width="80" height="80" rx="13" fill="#151a1d" stroke="#283136" stroke-width="2"/><path fill="#f4f7f5" transform="matrix(0.52 0 0 0.52 644 520)" d="M-6.91-72.46L6.81-72.46L6.81 0L-6.91 0"/></g><path fill="#30d5b0" d="M476 585L482 585L482 592L476 592L476 585M494 592Q490 592 488 591Q486 589 486 585Q486 582 489 580Q491 578 496 578L501 578L501 577Q501 574 500 573Q499 572 497 572Q496 572 495 573Q494 574 494 576L487 575Q489 568 497 568Q502 568 504 570Q507 573 507 577L507 585Q507 587 507 588Q507 589 509 589Q509 589 510 588L510 592Q509 592 508 592Q507 592 506 592Q504 592 503 591Q502 590 501 588L501 588Q500 590 498 591Q496 592 494 592M501 582L501 581L497 581Q495 581 495 582Q494 582 493 583Q493 584 493 585Q493 587 493 587Q494 588 495 588Q497 588 498 587Q499 587 500 585Q501 584 501 582M524 588L524 592Q522 592 519 592Q516 592 515 591Q513 589 513 587L513 573L510 573L510 569L513 569L515 563L519 563L519 569L523 569L523 573L519 573L519 585Q519 587 520 587Q520 588 522 588Q522 588 524 588M533 573L533 573Q534 571 536 570Q538 568 541 568Q544 568 546 571Q548 573 548 577L548 592L542 592L542 579Q542 576 541 574Q540 573 538 573Q536 573 535 575Q533 577 533 580L533 592L527 592L527 560L533 560L533 569Q533 570 533 570Q533 571 533 572Q533 573 533 573"/><path d="M176 612h672" stroke="#30d5b0" stroke-width="4" stroke-linecap="round" opacity=".65"/><path fill="#96a19c" transform="translate(348 640)" d="M9-2L13-2L13 0L2 0L2-2L6-2L6-14L2-11L2-14L6-17L9-17"/><path fill="#96a19c" transform="translate(361 640)" d="M5-3L12-3L12 0L1 0L1-2Q1-3 2-4Q3-5 4-6Q4-7 6-8Q7-9 7-9Q8-10 8-10Q8-11 9-11Q9-12 9-12Q9-13 8-14Q8-14 7-14Q6-14 5-14Q4-13 4-12L1-12Q1-14 3-16Q4-17 7-17Q9-17 11-16Q12-14 12-12Q12-11 12-10Q11-9 10-8Q10-7 9-7Q8-6 7-5Q6-5 6-4Q5-3 5-3"/><path fill="#96a19c" transform="translate(374 640)" d="M16-2Q19-2 20-6L23-4Q22-2 20-1Q19 0 16 0Q13 0 11-1Q10-2 9-4Q8-6 8-8Q8-11 9-13Q10-15 11-16Q13-17 16-17Q19-17 21-16Q22-14 23-12L20-11Q20-13 19-13Q17-14 16-14Q14-14 12-13Q11-11 11-8Q11-6 12-5Q12-4 13-3Q14-2 16-2M36-7L29-7L29 0L26 0L26-17L29-17L29-10L36-10L36-17L40-17L40 0L36 0L36-7M53-4L47-4L45 0L42 0L48-17L52-17L58 0L55 0L53-4M50-14Q50-13 50-13Q49-12 49-12L48-7L52-7L51-12Q50-13 50-13Q50-13 50-14M68-6L64-6L64 0L60 0L60-17L69-17Q71-17 73-15Q75-14 75-12Q75-10 74-9Q73-7 71-7L76 0L72 0L68-6M71-11Q71-13 70-13Q70-14 68-14L64-14L64-9L68-9Q70-9 70-10Q71-10 71-11M88-4L82-4L80 0L77 0L83-17L87-17L93 0L89 0L88-4M85-14Q85-13 84-13Q84-12 84-12L82-7L87-7L85-12Q85-13 85-13Q85-13 85-14M103-2Q106-2 107-6L110-4Q109-2 107-1Q105 0 103 0Q100 0 98-1Q96-2 95-4Q94-6 94-8Q94-11 95-13Q96-15 98-16Q100-17 102-17Q105-17 107-16Q109-14 110-12L107-11Q106-13 105-13Q104-14 103-14Q100-14 99-13Q98-11 98-8Q98-6 98-5Q99-4 100-3Q101-2 103-2M125-14L120-14L120 0L116 0L116-14L111-14L111-17L125-17L125-14M130-3L140-3L140 0L127 0L127-17L140-17L140-14L130-14L130-10L139-10L139-7L130-7L130-3M150-6L146-6L146 0L143 0L143-17L151-17Q154-17 156-15Q157-14 157-12Q157-10 156-9Q155-7 154-7L158 0L154 0L150-6M154-11Q154-13 153-13Q152-14 151-14L146-14L146-9L151-9Q152-9 153-10Q154-10 154-11M174 0Q172 0 170-1Q168-1 168-3Q167-4 167-6L167-17L170-17L170-6Q170-4 171-3Q172-2 174-2Q176-2 177-4Q178-5 178-7L178-17L181-17L181-6Q181-4 180-3Q179-1 178-1Q176 0 174 0M198-5Q198-2 196-1Q194 0 191 0Q184 0 183-4L187-5Q187-4 188-3Q189-2 191-2Q193-2 193-3Q194-3 194-5Q194-5 194-6Q194-6 193-6Q192-7 192-7Q191-7 190-7Q189-8 188-8Q187-8 187-8Q186-8 186-9Q185-9 185-10Q184-11 184-12Q184-14 186-16Q187-17 191-17Q194-17 195-16Q197-15 197-13L194-12Q194-13 193-14Q192-14 191-14Q189-14 188-14Q187-13 187-12Q187-12 188-11Q188-11 189-11Q189-10 191-10Q193-10 194-9Q194-9 195-9Q195-9 196-8Q196-8 197-8Q197-7 197-7Q198-6 198-5M204-3L214-3L214 0L200 0L200-17L213-17L213-14L204-14L204-10L213-10L213-7L204-7L204-3M224-6L220-6L220 0L216 0L216-17L225-17Q227-17 229-15Q231-14 231-12Q231-10 230-9Q229-7 227-7L232 0L228 0L224-6M227-11Q227-13 226-13Q226-14 224-14L220-14L220-9L224-9Q226-9 226-10Q227-10 227-11M237-10L237 0L234 0L234-17L238-17L245-4Q245-5 245-7L245-17L248-17L248 0L244 0L236-13Q237-12 237-11Q237-10 237-10M261-4L255-4L253 0L250 0L256-17L260-17L266 0L263 0L261-4M258-14Q258-13 258-13Q257-12 257-12L256-7L260-7L259-12Q258-13 258-13Q258-13 258-14M271-10L271 0L268 0L268-17L273-17L276-7Q276-7 276-6Q276-5 277-4Q277-5 277-5Q277-5 277-6Q277-6 277-7L280-17L285-17L285 0L282 0L282-10Q282-10 282-11Q282-12 282-14Q282-12 281-11Q281-10 281-9L278 0L275 0L272-9L271-14Q271-12 271-11Q271-10 271-10M292-3L302-3L302 0L288 0L288-17L301-17L301-14L292-14L292-10L301-10L301-7L292-7"/><path fill="#66726d" d="M352 758L352 760Q350 760 349 760Q347 760 347 759Q346 759 346 757L346 750L344 750L344 747L346 747L347 744L349 744L349 747L352 747L352 750L349 750L349 756Q349 757 349 757Q350 758 351 758Q351 758 352 758M357 754L357 760L354 760L354 750Q354 749 354 749Q354 748 354 747L357 747Q357 747 357 748Q357 748 357 749Q357 749 357 749Q357 750 357 750L357 750Q357 749 358 748Q358 748 359 747Q359 747 360 747Q361 747 361 747L361 750Q360 750 360 750Q358 750 358 751Q357 752 357 754M366 760Q364 760 363 759Q362 758 362 756Q362 754 363 753Q365 752 367 752L370 752L370 752Q370 750 369 750Q369 749 368 749Q367 749 367 750Q366 750 366 751L363 751Q363 747 368 747Q370 747 372 748Q373 749 373 752L373 756Q373 757 373 758Q374 758 374 758Q374 758 375 758L375 760Q374 760 374 760Q373 760 373 760Q371 760 371 760Q370 759 370 758L370 758Q369 759 368 760Q367 760 366 760M370 755L370 754L368 754Q367 754 366 754Q366 755 366 755Q365 755 365 756Q365 757 366 757Q366 758 367 758Q368 758 368 758Q369 757 369 756Q370 756 370 755M380 753L380 760L376 760L376 750Q376 749 376 748Q376 748 376 747L379 747Q379 747 379 748Q379 749 379 749Q380 750 380 750L380 750Q380 748 381 748Q382 747 384 747Q386 747 387 748Q388 750 388 752L388 760L385 760L385 753Q385 751 384 750Q383 750 382 750Q381 750 380 751Q380 752 380 753M402 756Q402 758 400 759Q399 760 396 760Q393 760 392 759Q391 759 390 757L393 756Q393 757 394 758Q395 758 396 758Q397 758 398 758Q399 757 399 757Q399 756 398 756Q398 755 396 755Q395 755 395 755Q394 754 394 754Q393 754 393 754Q392 754 391 753Q391 752 391 751Q391 749 392 748Q393 747 396 747Q398 747 400 748Q401 749 401 750L398 751Q398 750 398 750Q397 749 396 749Q395 749 394 750Q394 750 394 751Q394 751 394 751Q395 752 396 752Q397 752 398 753Q399 753 400 753Q401 754 401 755Q402 755 402 756M411 750L408 750L408 760L405 760L405 750L403 750L403 747L405 747L405 746Q405 744 406 743Q407 743 409 743Q410 743 411 743L411 745Q410 745 410 745Q409 745 409 745Q408 745 408 746L408 747L411 747L411 750M423 754L415 754Q415 756 416 757Q416 758 418 758Q419 758 419 758Q420 757 420 757L423 757Q422 760 418 760Q415 760 413 759Q412 757 412 754Q412 750 413 749Q415 747 418 747Q420 747 422 749Q423 751 423 754L423 754M415 752L420 752Q420 751 419 750Q419 749 418 749Q416 749 416 750Q415 751 415 752M429 754L429 760L426 760L426 750Q426 749 426 749Q426 748 426 747L429 747Q429 747 429 748Q429 748 429 749Q429 749 429 749Q429 750 429 750L429 750Q429 749 430 748Q430 748 431 747Q431 747 432 747Q433 747 433 747L433 750Q432 750 432 750Q430 750 430 751Q429 752 429 754M438 760Q436 760 435 759Q434 758 434 756Q434 754 435 753Q437 752 439 752L442 752L442 752Q442 750 441 750Q441 749 440 749Q439 749 439 750Q438 750 438 751L435 751Q435 747 440 747Q442 747 444 748Q445 749 445 752L445 756Q445 757 445 758Q446 758 446 758Q446 758 447 758L447 760Q446 760 446 760Q445 760 445 760Q443 760 443 760Q442 759 442 758L442 758Q441 759 440 760Q439 760 438 760M442 755L442 754L440 754Q439 754 438 754Q438 755 438 755Q437 755 437 756Q437 757 438 757Q438 758 439 758Q440 758 440 758Q441 757 441 756Q442 756 442 755M460 754Q460 757 459 758Q458 760 455 760Q454 760 453 760Q452 759 452 758L452 758Q452 758 452 759Q452 759 452 759Q452 760 451 760L448 760Q448 759 448 759Q448 758 448 757L448 743L452 743L452 747Q452 748 452 748Q452 749 452 750L452 750Q452 748 453 748Q454 747 456 747Q458 747 459 749Q460 750 460 754M457 754Q457 751 456 750Q456 749 454 749Q453 749 452 750Q452 752 452 754Q452 756 452 757Q453 758 454 758Q456 758 456 757Q457 756 457 754M463 743L466 743L466 760L463 760L463 743M481 754L472 754Q472 756 473 757Q474 758 475 758Q476 758 476 758Q477 757 477 757L480 757Q479 760 475 760Q472 760 470 759Q469 757 469 754Q469 750 471 749Q472 747 475 747Q478 747 479 749Q481 751 481 754L481 754M472 752L477 752Q477 751 477 750Q476 749 475 749Q474 749 473 750Q472 751 472 752M502 754Q502 757 500 758Q498 760 495 760Q492 760 491 758Q489 757 489 754Q489 751 491 749Q492 747 495 747Q498 747 500 749Q502 750 502 754M498 754Q498 751 498 750Q497 749 495 749Q494 749 493 750Q492 751 492 754Q492 756 493 757Q494 758 495 758Q497 758 498 757Q498 756 498 754M508 753L508 760L504 760L504 750Q504 749 504 748Q504 748 504 747L507 747Q507 747 507 748Q508 749 508 749Q508 750 508 750L508 750Q508 748 509 748Q510 747 512 747Q514 747 515 748Q516 750 516 752L516 760L513 760L513 753Q513 751 512 750Q511 750 510 750Q509 750 508 751Q508 752 508 753M518 752L524 752L524 755L518 755L518 752M532 760Q529 760 528 759Q526 757 526 754Q526 751 528 749Q529 747 532 747Q535 747 536 748Q538 749 538 751L535 751Q534 751 534 750Q533 749 532 749Q531 749 530 750Q530 751 530 754Q530 756 530 757Q531 758 532 758Q533 758 534 757Q535 757 535 756L538 756Q538 757 537 758Q536 759 535 760Q534 760 532 760M544 750L544 750Q544 748 545 748Q546 747 548 747Q550 747 551 748Q552 750 552 752L552 760L549 760L549 753Q549 751 548 750Q547 750 546 750Q545 750 544 751Q544 752 544 753L544 760L540 760L540 743L544 743L544 747Q544 748 544 748Q544 749 544 749Q544 749 544 750M558 760Q556 760 555 759Q554 758 554 756Q554 754 555 753Q557 752 559 752L562 752L562 752Q562 750 561 750Q561 749 560 749Q559 749 559 750Q558 750 558 751L555 751Q555 747 560 747Q562 747 564 748Q565 749 565 752L565 756Q565 757 565 758Q566 758 566 758Q566 758 567 758L567 760Q566 760 566 760Q565 760 565 760Q563 760 563 760Q562 759 562 758L562 758Q561 759 560 760Q559 760 558 760M562 755L562 754L560 754Q559 754 558 754Q558 755 558 755Q557 755 557 756Q557 757 558 757Q558 758 559 758Q560 758 560 758Q561 757 561 756Q562 756 562 755M568 743L572 743L572 745L568 745L568 743M568 747L572 747L572 760L568 760L568 747M578 753L578 760L575 760L575 750Q575 749 575 748Q575 748 575 747L578 747Q578 747 578 748Q578 749 578 749Q578 750 578 750L578 750Q579 748 580 748Q581 747 582 747Q584 747 585 748Q587 750 587 752L587 760L583 760L583 753Q583 751 583 750Q582 750 581 750Q580 750 579 751Q578 752 578 753M596 743L600 743L600 745L596 745L596 743M596 747L600 747L600 760L596 760L596 747M614 760L611 760Q611 760 611 760Q611 759 611 759Q611 758 611 758L611 758Q610 759 609 760Q608 760 607 760Q605 760 604 759Q602 757 602 754Q602 751 604 749Q605 747 607 747Q609 747 610 748Q611 748 611 749L611 749L611 747L611 743L614 743L614 757Q614 758 614 759Q614 759 614 760M606 754Q606 756 606 757Q607 758 608 758Q610 758 610 757Q611 756 611 754Q611 752 610 750Q610 749 608 749Q607 749 606 750Q606 751 606 754M629 754L620 754Q620 756 621 757Q622 758 623 758Q624 758 624 758Q625 757 625 757L628 757Q627 760 623 760Q620 760 618 759Q617 757 617 754Q617 750 619 749Q620 747 623 747Q626 747 627 749Q629 751 629 754L629 754M620 752L625 752Q625 751 625 750Q624 749 623 749Q622 749 621 750Q620 751 620 752M634 753L634 760L631 760L631 750Q631 749 631 748Q631 748 631 747L634 747Q634 747 634 748Q634 749 634 749Q634 750 634 750L634 750Q635 748 636 748Q637 747 638 747Q640 747 641 748Q643 750 643 752L643 760L639 760L639 753Q639 751 639 750Q638 750 637 750Q636 750 635 751Q634 752 634 753M652 758L652 760Q651 760 649 760Q647 760 647 759Q646 759 646 757L646 750L644 750L644 747L646 747L647 744L649 744L649 747L652 747L652 750L649 750L649 756Q649 757 650 757Q650 758 651 758Q651 758 652 758M654 743L657 743L657 745L654 745L654 743M654 747L657 747L657 760L654 760L654 747M666 758L666 760Q665 760 664 760Q662 760 661 759Q661 759 661 757L661 750L659 750L659 747L661 747L662 744L664 744L664 747L666 747L666 750L664 750L664 756Q664 757 664 757Q665 758 665 758Q666 758 666 758M670 765Q669 765 668 765L668 762Q669 763 669 763Q670 763 671 762Q671 761 672 760L667 747L670 747L672 753Q673 754 673 755Q673 756 674 757Q674 756 674 755Q674 754 675 753L676 747L680 747L675 761Q675 761 674 762Q674 763 674 763Q673 764 672 765Q671 765 670 765"/></svg>